<svg width="24" height="24" viewBox="0 0 24 24" fill="none" xmlns="http://www.w3.org/2000/svg">
<path d="M12 9.2716C11.2577 8.85493 10.3978 8.73326 9.57739 8.92881C8.75694 9.12436 8.03071 9.62407 7.53135 10.3367C7.032 11.0493 6.79285 11.9272 6.85759 12.8101C6.92234 13.6929 7.28666 14.5218 7.884 15.1453L11.148 18.5811C11.2596 18.6995 11.3923 18.7934 11.5385 18.8576C11.6847 18.9217 11.8416 18.9547 12 18.9547C12.1584 18.9547 12.3153 18.9217 12.4615 18.8576C12.6077 18.7934 12.7404 18.6995 12.852 18.5811L16.116 15.1453C16.7133 14.5218 17.0777 13.6929 17.1424 12.8101C17.2072 11.9272 16.968 11.0493 16.4686 10.3367C15.9693 9.62407 15.2431 9.12436 14.4226 8.92881C13.6022 8.73326 12.7423 8.85493 12 9.2716ZM14.4 13.3516L12 15.8779L9.6 13.3516C9.39336 13.1337 9.27729 12.8384 9.27729 12.5305C9.27729 12.2227 9.39336 11.9274 9.6 11.7095C9.80699 11.492 10.0875 11.3698 10.38 11.3698C10.6725 11.3698 10.953 11.492 11.16 11.7095C11.2716 11.8279 11.4043 11.9219 11.5505 11.986C11.6967 12.0501 11.8536 12.0831 12.012 12.0831C12.1704 12.0831 12.3273 12.0501 12.4735 11.986C12.6197 11.9219 12.7524 11.8279 12.864 11.7095C13.0736 11.5061 13.3497 11.396 13.6347 11.4021C13.9197 11.4082 14.1914 11.5301 14.3929 11.7422C14.5944 11.9544 14.7102 12.2404 14.716 12.5403C14.7218 12.8403 14.6172 13.131 14.424 13.3516H14.4ZM20.4 3.7895H12.864L12.48 2.52634C12.2311 1.78516 11.7693 1.14382 11.1587 0.691178C10.5481 0.238535 9.81883 -0.0030024 9.072 2.81729e-05H3.6C2.64522 2.81729e-05 1.72955 0.399275 1.05442 1.10994C0.379285 1.8206 0 2.78447 0 3.7895V20.2105C0 21.2156 0.379285 22.1794 1.05442 22.8901C1.72955 23.6008 2.64522 24 3.6 24H20.4C21.3548 24 22.2705 23.6008 22.9456 22.8901C23.6207 22.1794 24 21.2156 24 20.2105V7.57897C24 6.57394 23.6207 5.61007 22.9456 4.89941C22.2705 4.18874 21.3548 3.7895 20.4 3.7895ZM21.6 20.2105C21.6 20.5455 21.4736 20.8668 21.2485 21.1037C21.0235 21.3406 20.7183 21.4737 20.4 21.4737H3.6C3.28174 21.4737 2.97652 21.3406 2.75147 21.1037C2.52643 20.8668 2.4 20.5455 2.4 20.2105V3.7895C2.4 3.45449 2.52643 3.1332 2.75147 2.89631C2.97652 2.65942 3.28174 2.52634 3.6 2.52634H9.072C9.32357 2.52566 9.56899 2.60822 9.77355 2.76235C9.97812 2.91649 10.1315 3.1344 10.212 3.38529L10.86 5.45686C10.9405 5.70775 11.0939 5.92567 11.2984 6.0798C11.503 6.23393 11.7484 6.31649 12 6.31581H20.4C20.7183 6.31581 21.0235 6.44889 21.2485 6.68578C21.4736 6.92267 21.6 7.24396 21.6 7.57897V20.2105Z" fill="#ADADAD"/>
<path d="M12 9.2716C11.2577 8.85493 10.3978 8.73326 9.57739 8.92881C8.75694 9.12436 8.03071 9.62407 7.53135 10.3367C7.032 11.0493 6.79285 11.9272 6.85759 12.8101C6.92234 13.6929 7.28666 14.5218 7.884 15.1453L11.148 18.5811C11.2596 18.6995 11.3923 18.7934 11.5385 18.8576C11.6847 18.9217 11.8416 18.9547 12 18.9547C12.1584 18.9547 12.3153 18.9217 12.4615 18.8576C12.6077 18.7934 12.7404 18.6995 12.852 18.5811L16.116 15.1453C16.7133 14.5218 17.0777 13.6929 17.1424 12.8101C17.2072 11.9272 16.968 11.0493 16.4686 10.3367C15.9693 9.62407 15.2431 9.12436 14.4226 8.92881C13.6022 8.73326 12.7423 8.85493 12 9.2716ZM14.4 13.3516L12 15.8779L9.6 13.3516C9.39336 13.1337 9.27729 12.8384 9.27729 12.5305C9.27729 12.2227 9.39336 11.9274 9.6 11.7095C9.80699 11.492 10.0875 11.3698 10.38 11.3698C10.6725 11.3698 10.953 11.492 11.16 11.7095C11.2716 11.8279 11.4043 11.9219 11.5505 11.986C11.6967 12.0501 11.8536 12.0831 12.012 12.0831C12.1704 12.0831 12.3273 12.0501 12.4735 11.986C12.6197 11.9219 12.7524 11.8279 12.864 11.7095C13.0736 11.5061 13.3497 11.396 13.6347 11.4021C13.9197 11.4082 14.1914 11.5301 14.3929 11.7422C14.5944 11.9544 14.7102 12.2404 14.716 12.5403C14.7218 12.8403 14.6172 13.131 14.424 13.3516H14.4ZM20.4 3.7895H12.864L12.48 2.52634C12.2311 1.78516 11.7693 1.14382 11.1587 0.691178C10.5481 0.238535 9.81883 -0.0030024 9.072 2.81729e-05H3.6C2.64522 2.81729e-05 1.72955 0.399275 1.05442 1.10994C0.379285 1.8206 0 2.78447 0 3.7895V20.2105C0 21.2156 0.379285 22.1794 1.05442 22.8901C1.72955 23.6008 2.64522 24 3.6 24H20.4C21.3548 24 22.2705 23.6008 22.9456 22.8901C23.6207 22.1794 24 21.2156 24 20.2105V7.57897C24 6.57394 23.6207 5.61007 22.9456 4.89941C22.2705 4.18874 21.3548 3.7895 20.4 3.7895ZM21.6 20.2105C21.6 20.5455 21.4736 20.8668 21.2485 21.1037C21.0235 21.3406 20.7183 21.4737 20.4 21.4737H3.6C3.28174 21.4737 2.97652 21.3406 2.75147 21.1037C2.52643 20.8668 2.4 20.5455 2.4 20.2105V3.7895C2.4 3.45449 2.52643 3.1332 2.75147 2.89631C2.97652 2.65942 3.28174 2.52634 3.6 2.52634H9.072C9.32357 2.52566 9.56899 2.60822 9.77355 2.76235C9.97812 2.91649 10.1315 3.1344 10.212 3.38529L10.86 5.45686C10.9405 5.70775 11.0939 5.92567 11.2984 6.0798C11.503 6.23393 11.7484 6.31649 12 6.31581H20.4C20.7183 6.31581 21.0235 6.44889 21.2485 6.68578C21.4736 6.92267 21.6 7.24396 21.6 7.57897V20.2105Z" stroke="#ADADAD"/>
</svg>
