<svg width="25" height="24" viewBox="0 0 25 24" fill="none" xmlns="http://www.w3.org/2000/svg">
<path d="M12.5 2C9.88002 2 7.75002 4.13 7.75002 6.75C7.75002 9.32 9.76002 11.4 12.38 11.49C12.46 11.48 12.54 11.48 12.6 11.49H12.67C13.8994 11.449 15.0646 10.9315 15.9193 10.0469C16.774 9.16234 17.2512 7.98004 17.25 6.75C17.25 4.13 15.12 2 12.5 2ZM17.58 14.149C14.79 12.289 10.24 12.289 7.43002 14.149C6.16002 14.999 5.46002 16.149 5.46002 17.379C5.46002 18.609 6.16002 19.749 7.42002 20.589C8.82002 21.529 10.66 21.999 12.5 21.999C14.34 21.999 16.18 21.529 17.58 20.589C18.84 19.739 19.54 18.599 19.54 17.359C19.53 16.129 18.84 14.989 17.58 14.149Z" fill="#838383"/>
</svg>
