<svg width="24" height="24" viewBox="0 0 24 24" fill="none" xmlns="http://www.w3.org/2000/svg">
<path d="M22.6667 2.02093e-07C22.4915 -8.97134e-05 22.3181 0.0308878 22.1563 0.0911615C21.9945 0.151435 21.8475 0.239823 21.7236 0.351271C21.5998 0.46272 21.5016 0.595042 21.4346 0.740674C21.3677 0.886305 21.3332 1.04239 21.3333 1.2V1.96406C20.2088 3.21891 18.7875 4.2323 17.173 4.93046C15.5584 5.62863 13.7912 5.99401 12 6H4C2.93949 6.00104 1.92275 6.38066 1.17285 7.05557C0.422957 7.73047 0.00115759 8.64554 0 9.6V12C0.00115759 12.9545 0.422957 13.8695 1.17285 14.5444C1.92275 15.2193 2.93949 15.599 4 15.6H4.64505L1.44141 22.3277C1.35435 22.5102 1.31901 22.7092 1.33855 22.907C1.35809 23.1048 1.43191 23.2952 1.55338 23.461C1.67484 23.6267 1.84015 23.7628 2.03447 23.8569C2.22878 23.951 2.44602 24.0001 2.66667 24H8C8.261 24.0001 8.5163 23.9312 8.73414 23.8018C8.95199 23.6725 9.12277 23.4883 9.22527 23.2723L12.8569 15.6456C14.4978 15.754 16.0965 16.164 17.5544 16.8503C19.0123 17.5366 20.2984 18.4846 21.3333 19.6357V20.4C21.3333 20.7183 21.4738 21.0235 21.7239 21.2485C21.9739 21.4736 22.313 21.6 22.6667 21.6C23.0203 21.6 23.3594 21.4736 23.6095 21.2485C23.8595 21.0235 24 20.7183 24 20.4V1.2C24.0001 1.04239 23.9657 0.886304 23.8987 0.740672C23.8317 0.59504 23.7335 0.462717 23.6097 0.351268C23.4859 0.239819 23.3388 0.151432 23.177 0.0911584C23.0152 0.0308852 22.8418 -9.12925e-05 22.6667 2.02093e-07ZM4 13.2C3.64645 13.1998 3.30745 13.0733 3.05745 12.8483C2.80745 12.6233 2.6669 12.3182 2.66667 12V9.6C2.66691 9.28181 2.80746 8.97671 3.05746 8.75171C3.30745 8.52671 3.64645 8.40022 4 8.4H5.33333V13.2H4ZM7.12109 21.6H4.6888L7.54557 15.6H9.97787L7.12109 21.6ZM21.3333 16.2262C18.7043 14.2769 15.4062 13.2075 12 13.1999H8V8.39994H12C15.4063 8.3921 18.7044 7.32253 21.3333 5.37313V16.2262Z" fill="#3081D0"/>
</svg>
